<?xml version="1.0" standalone="no"?>
<!DOCTYPE svg PUBLIC "-//W3C//DTD SVG 20010904//EN"
 "http://www.w3.org/TR/2001/REC-SVG-20010904/DTD/svg10.dtd">
<svg version="1.0" xmlns="http://www.w3.org/2000/svg"
 width="512.000000pt" height="512.000000pt" viewBox="0 0 512.000000 512.000000"
 preserveAspectRatio="xMidYMid meet">
<metadata>
Created by potrace 1.15, written by Peter Selinger 2001-2017
</metadata>
<g transform="translate(0.000000,512.000000) scale(0.500000,-0.500000)"
fill="#424242" stroke="none">
<path d="M1840 4204 c-128 -23 -242 -52 -339 -86 -124 -42 -481 -212 -481
-228 0 -6 52 -113 115 -240 l115 -229 -65 -353 c-35 -194 -80 -438 -99 -543
-126 -684 -130 -945 -21 -1170 129 -266 417 -422 817 -443 424 -23 802 54
1171 239 261 130 451 283 627 504 322 405 475 849 457 1320 -16 406 -162 735
-430 972 -304 268 -796 330 -1335 167 l-113 -34 -25 29 c-14 17 -55 45 -90 62
-60 30 -75 33 -172 35 -59 1 -118 0 -132 -2z m683 -574 c312 -36 506 -231 590
-594 28 -123 31 -434 4 -573 -36 -192 -93 -336 -194 -492 -125 -193 -298 -323
-503 -380 -106 -30 -274 -44 -393 -33 -54 5 -99 11 -101 13 -5 5 17 142 164
1039 65 399 129 789 141 867 l21 142 42 5 c130 17 128 17 229 6z"/>
</g>
</svg>
